<?xml version="1.0" encoding="utf-8"?>
<!-- Generator: Adobe Illustrator 23.0.2, SVG Export Plug-In . SVG Version: 6.00 Build 0)  -->
<svg version="1.1" id="Layer_1" xmlns="http://www.w3.org/2000/svg" xmlns:xlink="http://www.w3.org/1999/xlink" x="0px" y="0px"
	 viewBox="0 0 595.28 841.89" style="enable-background:new 0 0 595.28 841.89;" xml:space="preserve">
<g>
	<g>
		<path d="M214.99,410.03c-1-15.13,2.54-29.14,10.78-41.82c7.67-11.81,18.36-20.26,30.9-26.44c11.91-5.88,24.74-9.08,37.73-10.8
			c7.91-1.05,16.2-0.03,24.23,0.89c6.98,0.8,13.97,2.29,20.71,4.3c18.33,5.47,34.14,14.96,45.11,31.1
			c7.16,10.53,11.35,22.27,11.26,35.13c-0.07,9.92,0.17,20.01-1.53,29.71c-1.85,10.57-5.75,20.78-8.8,31.13
			c-0.6,2.04-1.28,4.08-2.16,6.01c-3.23,7.03-3.14,6.8-9.96,2.72c-16.56-9.9-38.68-7.32-51.53,6.63c-4.49,4.87-8.82,9.63-16.61,9.6
			c-7.66-0.03-11.63-4.99-15.97-9.66c-5.57-5.99-12.19-9.51-20.19-11.35c-12.55-2.89-23.74-0.14-34.36,6.48
			c-3.16,1.97-4.89,1.91-6.13-2.54c-2.73-9.76-6.96-19.11-9.35-28.93C216.57,431.71,216.74,420.69,214.99,410.03
			C215.43,409.96,214.55,410.1,214.99,410.03z M370.93,387.14c-1.77,0.29-3.69,0.24-5.29,0.94c-6.74,2.93-13.58,5.71-20.01,9.23
			c-10.24,5.62-19.33,12.82-25.72,22.77c-1.25,1.94-1.44,5.22-0.78,7.48c0.4,1.37,3.42,2.81,5.22,2.75
			c3.57-0.12,7.44-0.57,10.58-2.12c8.75-4.31,17.43-8.87,25.69-14.05c6.82-4.28,12.63-10.04,16.25-17.39
			C380.15,390.11,376.85,386.24,370.93,387.14z M240.54,386.91c-7.33,0.44-9.86,4.16-6.22,10.46c2.35,4.08,5.32,8.28,9.04,11.01
			c8.69,6.36,17.75,12.34,27.19,17.5c4.73,2.59,10.57,3.5,16.03,4.31c4.38,0.65,6.93-2.69,5.51-6.9c-1.02-3-2.77-5.96-4.86-8.35
			c-10.44-11.92-23.69-19.77-38.26-25.55C246.25,388.31,243.35,387.72,240.54,386.91z"/>
		<path d="M352.3,537.65c-8.78,0.66-15.81-2.65-21.33-8.93c-7.14-8.12-15.6-13.43-26.67-13.03c-10.19,0.37-17.89,5.91-24.52,13.18
			c-10.63,11.67-27.53,12.11-39.75,1.89c-7.34-6.14-10.93-16.69-9.09-27.47c1.85-10.87,8.53-16.99,17.13-21.32
			c4.18-2.11,9.79-2.07,14.72-1.88c11.48,0.44,17.56,9.76,25.37,16.29c8.53,7.12,29.93,7.8,38.44-3.21
			c5.8-7.5,13.57-12.95,23.24-13.62c11.31-0.79,26.23,7.33,29.69,21.38c2.76,11.21,0.55,21.07-7.38,28.74
			C366.96,534.66,360.23,538.66,352.3,537.65z"/>
		<path d="M366.84,316.53c0,3.67-0.33,7.37,0.08,10.99c0.54,4.76-1.88,4.33-4.77,3.09c-5.45-2.33-10.7-5.15-16.24-7.2
			c-18.34-6.76-37.6-8.17-56.61-5.89c-12.79,1.54-25.85,4.65-37.32,11.62c-0.56,0.34-1.23,0.5-1.84,0.78
			c-6.1,2.86-6.27,2.77-6.27-3.57c0-7,0.13-14-0.05-21c-0.1-4.09,1.41-5.99,5.63-6.5c13.73-1.66,25.33-7.2,32.59-19.61
			c5.81-9.94,11.26-20.08,17.07-30.02c1.46-2.5,2.3-5.78,6.68-5.55c4.06,0.22,4.51,3.2,5.97,5.67
			c6.93,11.73,13.46,23.73,21.05,35.01c4.98,7.39,12.78,11.61,21.77,13.09c3.08,0.51,6.3,0.68,9.17,1.77
			c1.37,0.52,2.8,2.74,2.94,4.31C367.1,307.84,366.83,312.2,366.84,316.53z"/>
		<path d="M190.32,388.63c-6.3-2.66-13.28-4.36-18.74-8.22c-6.83-4.82-12.58-11.26-18.39-17.38c-1.16-1.23-1.35-4.75-0.41-6.18
			c0.84-1.28,3.95-1.81,5.9-1.53c16.04,2.36,28.44,10.63,37.01,24.27c3.36,5.35,1.55,7.79-4.85,7.79
			C190.67,387.8,190.49,388.22,190.32,388.63z"/>
		<path d="M452.25,354.89c6.94,0.42,8.64,2.63,5.23,8.33c-6.71,11.2-17.01,18.15-29.13,22.42c-3.19,1.12-6.75,1.53-10.16,1.64
			c-3.87,0.13-5-2.06-3.94-5.87c1.8-6.48,6.77-10.59,11.73-14.06c6.23-4.35,13.33-7.49,20.17-10.93
			C447.98,355.5,450.21,355.38,452.25,354.89z"/>
		<path d="M305.51,549.59c-7.29,0.58-13.97-1.35-20.24-4.94c-2.74-1.57-3.14-2.84-0.11-4.88c2.84-1.91,5.71-4.24,7.6-7.04
			c4.9-7.26,12.04-7.2,18.77-5.19c3.77,1.13,6.61,5.44,9.83,8.36c1.22,1.11,2.19,2.52,3.5,3.48c3.47,2.54,3.64,4.27-0.41,5.85
			C318.45,547.56,311.7,547.7,305.51,549.59C305.37,549.12,305.65,550.06,305.51,549.59z"/>
	</g>
</g>
<g>
</g>
<g>
</g>
<g>
</g>
<g>
</g>
<g>
</g>
<g>
</g>
</svg>
